<?xml version="1.0" standalone="no"?>
<!DOCTYPE svg PUBLIC "-//W3C//DTD SVG 20010904//EN"
 "http://www.w3.org/TR/2001/REC-SVG-20010904/DTD/svg10.dtd">
<svg version="1.0" xmlns="http://www.w3.org/2000/svg"
 width="700.000000pt" height="700.000000pt" viewBox="0 0 700.000000 700.000000"
 preserveAspectRatio="xMidYMid meet">
<metadata>
Created by potrace 1.11, written by Peter Selinger 2001-2013
</metadata>
<g transform="translate(0.000000,700.000000) scale(0.100000,-0.100000)"
fill="#000000" stroke="none">
<path d="M3895 5255 c-339 -53 -642 -235 -849 -509 l-55 -74 -42 15 c-137 47
-353 53 -508 14 -371 -93 -682 -441 -741 -828 -7 -43 -14 -83 -15 -89 -2 -6
-45 -21 -96 -33 -239 -58 -454 -177 -617 -342 l-63 -64 59 -10 c65 -12 127
-51 160 -101 26 -40 46 -114 40 -153 l-4 -29 40 22 c82 42 198 22 267 -48 49
-50 62 -84 63 -162 1 -73 -10 -109 -48 -151 l-19 -23 44 0 c74 0 118 -18 168
-68 141 -142 59 -375 -139 -398 l-59 -7 23 -18 c33 -26 64 -94 69 -149 7 -73
-17 -136 -73 -190 -46 -44 -48 -48 -27 -53 12 -3 57 -15 100 -27 174 -47 162
-47 1953 -45 1744 1 1730 1 1889 41 346 87 630 293 779 566 187 340 127 757
-150 1050 -169 178 -334 271 -641 364 -9 2 -13 32 -14 101 -1 120 -5 157 -36
328 -3 17 -17 66 -31 110 -14 44 -26 82 -27 85 -4 13 -28 67 -52 118 -105 219
-277 420 -469 549 -154 103 -319 172 -474 198 -19 3 -43 8 -52 11 -38 11 -277
10 -353 -1z"/>
</g>
</svg>
