<?xml version="1.0" encoding="UTF-8" standalone="no"?>
<!DOCTYPE svg PUBLIC "-//W3C//DTD SVG 1.1//EN" "http://www.w3.org/Graphics/SVG/1.1/DTD/svg11.dtd">
<svg version="1.1" xmlns="http://www.w3.org/2000/svg" xmlns:xlink="http://www.w3.org/1999/xlink" preserveAspectRatio="xMidYMid meet" viewBox="0 0 640 640" width="640" height="640"><defs><path d="M371.99 158.42C438.75 158.42 492.88 216.61 492.88 288.39C492.88 291.09 492.81 293.8 492.64 296.45C540.86 307.37 576.32 343.93 576.32 387.35C576.32 387.35 576.32 387.35 576.32 387.35C576.32 439.39 525.41 481.58 462.61 481.58C434.09 481.58 205.91 481.58 177.39 481.58C114.6 481.58 63.68 439.39 63.68 387.35C63.68 387.35 63.68 387.35 63.68 387.35C63.68 341.98 102.38 304.1 153.9 295.15C158.52 245.96 197.14 207.56 244.11 207.56C254.43 207.56 264.33 209.42 273.58 212.83C295.53 179.89 331.42 158.42 371.99 158.42Z" id="b45f4gruJp"></path><radialGradient id="gradientfq2HF4Af" gradientUnits="userSpaceOnUse" cx="381.05" cy="256.32" dx="128.42" dy="423.68" r="303.04"><stop style="stop-color: #ffffff;stop-opacity: 1" offset="0%"></stop><stop style="stop-color: #c0e5f9;stop-opacity: 1" offset="17.34743129506167%"></stop><stop style="stop-color: #099ae6;stop-opacity: 1" offset="100%"></stop></radialGradient></defs><g><g><g><use xlink:href="#b45f4gruJp" opacity="1" fill="url(#gradientfq2HF4Af)"></use></g></g></g></svg>