<?xml version="1.0" encoding="UTF-8" standalone="no"?>
<!DOCTYPE svg PUBLIC "-//W3C//DTD SVG 1.1//EN" "http://www.w3.org/Graphics/SVG/1.1/DTD/svg11.dtd">
<svg version="1.1" xmlns="http://www.w3.org/2000/svg" xmlns:xlink="http://www.w3.org/1999/xlink" preserveAspectRatio="xMidYMid meet" viewBox="0 0 640 640" width="640" height="640"><defs><path d="M381.91 158.85L386.78 159.38L391.6 160.12L396.35 161.06L401.04 162.2L405.66 163.53L410.2 165.05L414.66 166.75L419.04 168.63L423.34 170.69L427.54 172.93L431.65 175.33L435.67 177.89L439.58 180.62L443.38 183.5L447.08 186.53L450.66 189.71L454.13 193.03L457.47 196.49L460.69 200.08L463.78 203.81L466.73 207.66L469.55 211.63L472.23 215.72L474.77 219.93L477.15 224.24L479.38 228.66L481.46 233.18L483.38 237.8L485.13 242.51L486.72 247.31L488.13 252.19L489.37 257.16L490.42 262.2L491.3 267.31L491.98 272.49L492.48 277.73L492.78 283.03L492.88 288.39L492.88 288.59L492.88 288.8L492.88 289L492.88 289.2L492.88 289.4L492.87 289.61L492.87 289.81L492.87 290.01L492.87 290.22L492.87 290.42L492.86 290.62L492.86 290.82L492.86 291.03L492.85 291.23L492.85 291.43L492.84 291.63L492.84 291.83L492.83 292.04L492.83 292.24L492.82 292.44L492.82 292.64L492.81 292.84L492.8 293.04L492.8 293.25L492.79 293.45L492.78 293.65L492.77 293.85L492.76 294.05L492.76 294.25L492.75 294.45L492.74 294.65L492.73 294.85L492.72 295.05L492.71 295.25L492.7 295.45L492.69 295.65L492.67 295.85L492.66 296.05L492.65 296.25L492.64 296.45L496.23 297.32L499.77 298.28L503.26 299.33L506.7 300.48L510.08 301.71L513.4 303.03L516.66 304.44L519.86 305.93L522.99 307.5L526.06 309.15L529.05 310.88L531.98 312.69L534.83 314.57L537.61 316.53L540.31 318.56L542.92 320.66L545.46 322.82L547.91 325.05L550.28 327.35L552.56 329.71L554.75 332.13L556.84 334.61L558.84 337.15L560.75 339.74L562.55 342.39L564.26 345.08L565.86 347.83L567.36 350.63L568.74 353.47L570.02 356.36L571.19 359.3L572.24 362.27L573.18 365.28L574 368.34L574.7 371.43L575.27 374.55L575.73 377.7L576.05 380.89L576.25 384.11L576.32 387.35L576.22 391.23L575.94 395.08L575.47 398.88L574.83 402.63L574.01 406.34L573.01 409.99L571.85 413.59L570.52 417.13L569.03 420.61L567.38 424.03L565.58 427.38L563.62 430.65L561.52 433.86L559.28 436.99L556.9 440.03L554.38 443L551.73 445.88L548.95 448.67L546.04 451.37L543.01 453.98L539.87 456.49L536.61 458.9L533.24 461.2L529.76 463.4L526.19 465.49L522.51 467.46L518.73 469.32L514.87 471.06L510.91 472.68L506.87 474.17L502.75 475.54L498.55 476.78L494.28 477.88L489.94 478.84L485.53 479.66L481.05 480.35L476.52 480.88L471.94 481.27L467.3 481.5L462.61 481.58L177.39 481.58L172.7 481.5L168.07 481.27L163.48 480.88L158.95 480.35L154.48 479.66L150.07 478.84L145.73 477.88L141.45 476.78L137.26 475.54L133.13 474.17L132.16 473.81L132.31 473.74L133.4 473.15L134.44 472.5L135.45 471.79L136.41 471.03L137.33 470.22L138.2 469.36L139.02 468.44L139.79 467.48L140.51 466.48L141.17 465.43L141.77 464.34L142.31 463.22L142.78 462.06L143.19 460.86L143.53 459.64L143.79 458.38L143.99 457.1L144.11 455.79L144.15 454.47L144.11 453.18L143.99 451.9L143.8 450.64L143.54 449.4L143.21 448.19L142.81 447.01L142.35 445.86L141.82 444.74L141.23 443.66L140.58 442.61L139.88 441.61L139.12 440.64L138.3 439.72L137.44 438.85L136.52 438.03L135.56 437.26L134.61 436.58L134.75 436.61L136.03 436.8L137.34 436.92L138.65 436.96L139.95 436.92L141.23 436.81L142.49 436.62L143.72 436.36L144.93 436.03L146.11 435.63L147.26 435.17L148.38 434.64L149.47 434.05L150.51 433.4L151.52 432.69L152.48 431.93L153.4 431.12L154.27 430.25L155.09 429.34L155.86 428.38L156.58 427.37L157.24 426.33L157.84 425.24L158.38 424.12L158.85 422.95L159.26 421.76L159.6 420.53L159.87 419.28L160.06 417.99L160.18 416.68L160.22 415.37L160.18 414.07L160.06 412.79L159.88 411.54L159.61 410.3L159.28 409.09L158.88 407.91L158.42 406.76L157.89 405.64L157.3 404.56L156.65 403.51L155.95 402.5L155.19 401.54L154.37 400.62L153.51 399.75L152.59 398.93L151.63 398.16L150.63 397.44L149.58 396.78L148.5 396.18L147.37 395.65L146.21 395.17L145.02 394.76L143.79 394.42L142.53 394.16L141.25 393.96L139.94 393.84L138.63 393.8L137.33 393.84L136.05 393.96L134.79 394.15L133.7 394.38L134.02 394.09L134.89 393.23L135.71 392.31L136.48 391.35L137.2 390.35L137.86 389.3L138.46 388.22L138.99 387.09L139.47 385.93L139.88 384.73L140.22 383.51L140.48 382.25L140.68 380.97L140.8 379.66L140.84 378.35L140.8 377.05L140.68 375.77L140.49 374.51L140.23 373.27L139.9 372.06L139.5 370.88L139.04 369.73L138.51 368.61L137.92 367.53L137.27 366.48L136.57 365.48L135.81 364.52L134.99 363.6L134.13 362.72L133.21 361.9L132.25 361.13L131.25 360.42L130.2 359.76L129.11 359.16L127.99 358.62L126.83 358.15L125.63 357.74L124.41 357.4L123.15 357.13L121.87 356.94L120.56 356.82L119.24 356.78L117.95 356.82L116.67 356.93L115.41 357.12L114.17 357.38L112.96 357.71L111.78 358.11L110.63 358.58L109.51 359.1L108.43 359.69L107.38 360.34L106.38 361.05L106.29 361.12L106.49 360.16L106.68 358.88L106.8 357.57L106.84 356.26L106.8 354.96L106.69 353.68L106.5 352.42L106.24 351.18L105.91 349.98L105.51 348.79L105.05 347.64L104.52 346.52L103.93 345.44L103.28 344.39L102.57 343.39L101.81 342.43L101 341.51L100.13 340.64L99.22 339.81L98.26 339.04L97.26 338.33L96.21 337.67L95.12 337.07L94 336.53L92.84 336.06L91.64 335.65L90.41 335.31L89.16 335.04L87.87 334.85L86.56 334.73L85.25 334.69L83.95 334.73L83 334.81L84.83 332.61L87.1 330.07L89.47 327.59L91.94 325.19L94.5 322.85L97.15 320.59L99.89 318.41L102.71 316.29L105.63 314.26L108.62 312.31L111.69 310.44L114.84 308.65L118.07 306.95L121.37 305.34L124.73 303.82L128.17 302.39L131.67 301.06L135.23 299.82L138.86 298.68L142.54 297.64L146.27 296.71L150.06 295.88L153.9 295.15L154.31 291.48L154.85 287.86L155.5 284.28L156.28 280.74L157.18 277.26L158.19 273.83L159.31 270.46L160.55 267.15L161.89 263.9L163.34 260.71L164.89 257.59L166.55 254.54L168.3 251.56L170.15 248.65L172.09 245.82L174.12 243.07L176.25 240.4L178.46 237.81L180.75 235.32L183.12 232.91L185.58 230.59L188.11 228.37L190.72 226.25L193.4 224.23L196.14 222.3L198.96 220.49L201.84 218.78L204.78 217.18L207.79 215.7L210.85 214.33L213.97 213.08L217.14 211.95L220.35 210.94L223.62 210.06L226.94 209.31L230.29 208.69L233.69 208.2L237.13 207.85L240.6 207.63L244.11 207.56L244.88 207.57L245.65 207.58L246.42 207.59L247.19 207.62L247.96 207.65L248.72 207.69L249.49 207.73L250.25 207.78L251.01 207.84L251.77 207.91L252.52 207.98L253.28 208.06L254.03 208.14L254.78 208.23L255.53 208.33L256.28 208.43L257.02 208.55L257.77 208.66L258.51 208.79L259.25 208.92L259.98 209.05L260.72 209.2L261.45 209.35L262.18 209.5L262.91 209.66L263.64 209.83L264.36 210.01L265.09 210.19L265.81 210.37L266.52 210.57L267.24 210.77L267.95 210.97L268.67 211.18L269.37 211.4L270.08 211.62L270.79 211.85L271.49 212.09L272.19 212.33L272.88 212.57L273.58 212.83L275.25 210.38L276.98 207.97L278.75 205.61L280.57 203.3L282.45 201.03L284.37 198.81L286.34 196.64L288.35 194.52L290.41 192.45L292.51 190.43L294.66 188.46L296.85 186.55L299.08 184.69L301.36 182.89L303.67 181.14L306.02 179.45L308.41 177.82L310.84 176.24L313.3 174.73L315.81 173.27L318.34 171.88L320.91 170.55L323.51 169.29L326.15 168.09L328.81 166.95L331.51 165.88L334.24 164.88L336.99 163.95L339.78 163.08L342.59 162.29L345.42 161.57L348.29 160.92L351.17 160.34L354.08 159.84L357.02 159.41L359.97 159.06L362.95 158.78L365.94 158.58L368.96 158.46L371.99 158.42L376.98 158.53L381.91 158.85Z" id="bQy5Enn0O"></path><radialGradient id="gradientb5AsVRHJ4V" gradientUnits="userSpaceOnUse" cx="388.41" cy="256.32" dx="145.29" dy="423.68" r="295.16"><stop style="stop-color: #ffffff;stop-opacity: 1" offset="0%"></stop><stop style="stop-color: #c0e5f9;stop-opacity: 1" offset="17.34743129506167%"></stop><stop style="stop-color: #099ae6;stop-opacity: 1" offset="100%"></stop></radialGradient></defs><g><g><g><use xlink:href="#bQy5Enn0O" opacity="1" fill="url(#gradientb5AsVRHJ4V)"></use></g></g></g></svg>